<svg width="180" height="58" viewBox="0 0 180 58" fill="none" xmlns="http://www.w3.org/2000/svg">
<g clip-path="url(#clip0)">
<path d="M65.8195 41.5434C63.6355 41.5434 62.5435 41.3034 62.5435 40.8234V17.4954C62.5435 16.6794 62.9155 16.2714 63.6595 16.2714H69.9955C73.5475 16.2714 76.1035 17.0034 77.6635 18.4674C79.2475 19.9314 80.0395 22.0554 80.0395 24.8394C80.0395 27.1434 79.2955 29.2554 77.8075 31.1754C77.0635 32.1354 75.9715 32.9034 74.5315 33.4794C73.0915 34.0554 71.4115 34.3434 69.4915 34.3434V40.7874C69.4915 41.0754 69.0355 41.2794 68.1235 41.3994C67.2355 41.4954 66.4675 41.5434 65.8195 41.5434ZM69.4915 22.5354V28.2234H69.9595C70.7995 28.2234 71.5075 27.9594 72.0835 27.4314C72.6595 26.9034 72.9475 26.1594 72.9475 25.1994C72.9475 24.2394 72.7435 23.5554 72.3355 23.1474C71.9515 22.7394 71.2555 22.5354 70.2475 22.5354H69.4915ZM82.8587 39.3474V16.9554C82.8587 16.4514 84.0707 16.1994 86.4947 16.1994C88.9427 16.1994 90.1667 16.4514 90.1667 16.9554V34.5954H95.7107C96.1427 34.5954 96.4427 35.1594 96.6107 36.2874C96.6827 36.8394 96.7187 37.4034 96.7187 37.9794C96.7187 38.5554 96.6827 39.1434 96.6107 39.7434C96.4187 40.8954 96.1067 41.4714 95.6747 41.4714H84.5867C84.0587 41.4714 83.6387 41.2554 83.3267 40.8234C83.0147 40.3914 82.8587 39.8994 82.8587 39.3474ZM115.783 41.5434C113.695 41.5434 112.567 41.2074 112.399 40.5354L111.211 35.8914H105.487L104.443 40.3554C104.299 41.0994 103.147 41.4714 100.987 41.4714C99.8352 41.4714 98.9832 41.4114 98.4312 41.2914C97.8792 41.1474 97.6032 41.0394 97.6032 40.9674L103.975 16.5954C103.975 16.4034 105.619 16.3074 108.907 16.3074C112.195 16.3074 113.839 16.4034 113.839 16.5954L120.067 41.0034C120.067 41.1714 119.515 41.3034 118.411 41.3994C117.307 41.4954 116.431 41.5434 115.783 41.5434ZM106.387 31.3194H110.167L108.547 23.8674H108.331L106.387 31.3194ZM133.54 17.4594C133.852 16.6194 135.388 16.1994 138.148 16.1994C138.844 16.1994 139.66 16.2474 140.596 16.3434C141.556 16.4394 142 16.5594 141.928 16.7034L134.44 31.7514V40.5354C134.44 40.9434 133.78 41.2314 132.46 41.3994C131.788 41.4954 131.128 41.5434 130.48 41.5434C129.832 41.5434 129.184 41.5074 128.536 41.4354C127.216 41.2674 126.556 40.9674 126.556 40.5354V31.9674L118.816 16.7754C118.72 16.6314 119.212 16.4994 120.292 16.3794C121.372 16.2354 122.284 16.1634 123.028 16.1634C125.98 16.1634 127.6 16.5954 127.888 17.4594L130.516 24.8034L133.54 17.4594ZM154.86 26.2794C155.316 26.2794 155.544 27.1194 155.544 28.7994C155.544 29.3034 155.484 29.9034 155.364 30.5994C155.268 31.2714 155.076 31.6074 154.788 31.6074H150.216V35.2074H156.84C157.248 35.2074 157.524 35.7354 157.668 36.7914C157.74 37.2474 157.776 37.7394 157.776 38.2674C157.776 38.7714 157.704 39.4314 157.56 40.2474C157.416 41.0634 157.176 41.4714 156.84 41.4714H144.528C143.616 41.4714 143.16 41.0994 143.16 40.3554V17.2074C143.16 16.5834 143.436 16.2714 143.988 16.2714H156.876C157.38 16.2714 157.632 17.3394 157.632 19.4754C157.632 21.5874 157.38 22.6434 156.876 22.6434H150.216V26.2794H154.86ZM167.79 40.9674C167.79 41.3514 166.65 41.5434 164.37 41.5434C162.066 41.5434 160.914 41.3634 160.914 41.0034V17.5314C160.914 16.6914 161.358 16.2714 162.246 16.2714H169.122C175.434 16.2714 178.59 18.7314 178.59 23.6514C178.59 25.1394 178.302 26.4954 177.726 27.7194C177.15 28.9194 176.334 29.8794 175.278 30.5994L179.814 38.1594C179.622 38.7354 178.998 39.3954 177.942 40.1394C176.502 41.1714 175.314 41.6874 174.378 41.6874C173.442 41.6874 172.746 41.3514 172.29 40.6794L168.906 32.7954H167.79V40.9674ZM167.79 22.6434V28.0434H167.97C170.25 28.0434 171.39 27.0954 171.39 25.1994C171.39 24.3354 171.162 23.6994 170.706 23.2914C170.274 22.8594 169.554 22.6434 168.546 22.6434H167.79Z" fill="black"/>
<rect width="58.392" height="58.392" rx="8" fill="#00D1B2"/>
<path d="M13.9556 34.9258H18.4194V36.3203H15.7261V39.8135H17.8384V41.208H15.7261V46.6016H13.9556V34.9258ZM22.186 46.7041C21.9992 46.7041 21.7964 46.6882 21.5776 46.6562C21.3589 46.6289 21.1424 46.5674 20.9282 46.4717C20.714 46.376 20.5067 46.2415 20.3062 46.0684C20.1102 45.8906 19.9347 45.6582 19.7798 45.3711C19.6294 45.084 19.5086 44.7308 19.4175 44.3115C19.3263 43.8877 19.2808 43.3841 19.2808 42.8008V38.665C19.2808 38.0771 19.3263 37.5758 19.4175 37.1611C19.5132 36.7419 19.6385 36.391 19.7935 36.1084C19.9484 35.8213 20.1239 35.5934 20.3198 35.4248C20.5203 35.2562 20.7277 35.1286 20.9419 35.042C21.1606 34.9508 21.3771 34.8916 21.5913 34.8643C21.8055 34.8369 22.0037 34.8232 22.186 34.8232C22.3592 34.8232 22.5506 34.8369 22.7603 34.8643C22.9744 34.887 23.1864 34.9417 23.396 35.0283C23.6102 35.1104 23.8175 35.2357 24.0181 35.4043C24.2186 35.5684 24.3963 35.7939 24.5513 36.0811C24.7062 36.3636 24.8293 36.7168 24.9204 37.1406C25.0161 37.5599 25.064 38.068 25.064 38.665V42.8008C25.064 43.3796 25.0161 43.8786 24.9204 44.2979C24.8247 44.7126 24.6994 45.0658 24.5444 45.3574C24.3895 45.6445 24.2095 45.877 24.0044 46.0547C23.8039 46.2279 23.5965 46.3646 23.3823 46.4648C23.1727 46.5605 22.9631 46.6243 22.7534 46.6562C22.5438 46.6882 22.3547 46.7041 22.186 46.7041ZM22.186 45.3711C22.3592 45.3711 22.5096 45.3415 22.6372 45.2822C22.7694 45.223 22.8765 45.1204 22.9585 44.9746C23.0451 44.8288 23.1089 44.6374 23.1499 44.4004C23.1955 44.1589 23.2183 43.8558 23.2183 43.4912V38.1797C23.2183 37.806 23.1955 37.4938 23.1499 37.2432C23.1089 36.9925 23.0451 36.792 22.9585 36.6416C22.8765 36.4867 22.7694 36.3773 22.6372 36.3135C22.5096 36.2497 22.3592 36.2178 22.186 36.2178C22.0083 36.2178 21.8534 36.2497 21.7212 36.3135C21.589 36.3773 21.4797 36.4867 21.3931 36.6416C21.3065 36.792 21.2404 36.9925 21.1948 37.2432C21.1538 37.4938 21.1333 37.806 21.1333 38.1797V43.4912C21.1333 43.8558 21.1538 44.1589 21.1948 44.4004C21.2404 44.6374 21.3065 44.8288 21.3931 44.9746C21.4797 45.1204 21.589 45.223 21.7212 45.2822C21.8534 45.3415 22.0083 45.3711 22.186 45.3711ZM29.2544 46.7041C29.0721 46.7041 28.8739 46.6882 28.6597 46.6562C28.45 46.6289 28.2381 46.5674 28.0239 46.4717C27.8143 46.376 27.6115 46.2415 27.4155 46.0684C27.2241 45.8906 27.0532 45.6582 26.9028 45.3711C26.757 45.084 26.6385 44.7308 26.5474 44.3115C26.4608 43.8877 26.4175 43.3841 26.4175 42.8008V38.665C26.4175 38.0771 26.4631 37.5758 26.5542 37.1611C26.6453 36.7419 26.7661 36.391 26.9165 36.1084C27.0669 35.8213 27.2401 35.5934 27.436 35.4248C27.632 35.2562 27.8348 35.1286 28.0444 35.042C28.2541 34.9508 28.4614 34.8916 28.6665 34.8643C28.8761 34.8369 29.0698 34.8232 29.2476 34.8232C29.7124 34.8232 30.0998 34.8893 30.4097 35.0215C30.7241 35.1491 30.9748 35.3268 31.1616 35.5547C31.353 35.778 31.4875 36.04 31.5649 36.3408C31.647 36.6416 31.688 36.9606 31.688 37.2979C31.688 37.5485 31.6743 37.7809 31.647 37.9951C31.6242 38.2048 31.5877 38.4372 31.5376 38.6924H30.1021V38.0977C30.1021 37.4551 30.0314 36.9743 29.8901 36.6553C29.7489 36.3363 29.5415 36.1768 29.2681 36.1768C29.104 36.1768 28.9604 36.2087 28.8374 36.2725C28.7144 36.3363 28.6118 36.4456 28.5298 36.6006C28.4478 36.751 28.384 36.9515 28.3384 37.2021C28.2974 37.4528 28.2769 37.765 28.2769 38.1387V43.4707C28.2769 43.8353 28.2928 44.1383 28.3247 44.3799C28.3612 44.6214 28.4181 44.8151 28.4956 44.9609C28.5731 45.1068 28.6733 45.2116 28.7964 45.2754C28.924 45.3346 29.0767 45.3643 29.2544 45.3643C29.3683 45.3643 29.4777 45.3392 29.5825 45.2891C29.6873 45.2344 29.7785 45.1523 29.856 45.043C29.938 44.929 30.0018 44.7878 30.0474 44.6191C30.0975 44.446 30.1226 44.2432 30.1226 44.0107V42.8691H31.7427V43.9492C31.7427 44.888 31.5285 45.5807 31.1001 46.0273C30.6717 46.474 30.0565 46.6995 29.2544 46.7041ZM33.0962 34.9258H34.8804V43.4844C34.8804 43.849 34.8986 44.152 34.9351 44.3936C34.9715 44.6351 35.0285 44.8288 35.106 44.9746C35.188 45.1159 35.2905 45.2184 35.4136 45.2822C35.5412 45.3415 35.6916 45.3711 35.8647 45.3711C36.0379 45.3711 36.1883 45.3415 36.3159 45.2822C36.4481 45.2184 36.5552 45.1159 36.6372 44.9746C36.7238 44.8288 36.7876 44.6351 36.8286 44.3936C36.8742 44.152 36.897 43.849 36.897 43.4844V34.9258H38.6606V43.0127C38.6606 43.5824 38.6151 44.07 38.5239 44.4756C38.4328 44.8812 38.312 45.2207 38.1616 45.4941C38.0112 45.7676 37.8381 45.984 37.6421 46.1436C37.4507 46.3031 37.2502 46.4261 37.0405 46.5127C36.8354 46.5947 36.6304 46.6471 36.4253 46.6699C36.2202 46.6927 36.0334 46.7041 35.8647 46.7041C35.6961 46.7041 35.5093 46.6927 35.3042 46.6699C35.1037 46.6471 34.9009 46.5947 34.6958 46.5127C34.4907 46.4261 34.2925 46.3031 34.1011 46.1436C33.9097 45.984 33.7388 45.7676 33.5884 45.4941C33.438 45.2207 33.3172 44.8835 33.2261 44.4824C33.1395 44.0768 33.0962 43.5869 33.0962 43.0127V34.9258ZM40.1646 44.2363C40.1646 43.9857 40.1782 43.7555 40.2056 43.5459C40.2375 43.3317 40.283 43.1016 40.3423 42.8555H41.7163V43.4229C41.7163 43.7373 41.7345 44.0153 41.771 44.2568C41.812 44.4984 41.8758 44.7035 41.9624 44.8721C42.0535 45.0361 42.172 45.1615 42.3179 45.248C42.4683 45.3301 42.6506 45.3711 42.8647 45.3711C43.202 45.3711 43.4595 45.2799 43.6372 45.0977C43.8149 44.9108 43.9038 44.6396 43.9038 44.2842C43.9038 44.1019 43.8901 43.9355 43.8628 43.7852C43.84 43.6302 43.7967 43.4775 43.7329 43.3271C43.6737 43.1768 43.5916 43.0195 43.4868 42.8555C43.382 42.6868 43.2476 42.5 43.0835 42.2949L41.2378 40.1006C40.9097 39.6813 40.6567 39.2598 40.479 38.8359C40.3013 38.4076 40.2124 37.9518 40.2124 37.4688C40.2124 37.0814 40.2716 36.7259 40.3901 36.4023C40.5132 36.0788 40.6886 35.8008 40.9165 35.5684C41.1444 35.3314 41.4246 35.1491 41.7573 35.0215C42.0946 34.8893 42.4751 34.8232 42.8989 34.8232C43.4139 34.8232 43.8423 34.8962 44.1841 35.042C44.5304 35.1878 44.8062 35.3792 45.0112 35.6162C45.2163 35.8532 45.3599 36.1198 45.4419 36.416C45.5285 36.7077 45.5718 37.0016 45.5718 37.2979C45.5718 37.5485 45.5513 37.7809 45.5103 37.9951C45.4738 38.2048 45.4305 38.4372 45.3804 38.6924H44.0132V38.1387C44.0132 37.5189 43.9243 37.0449 43.7466 36.7168C43.5688 36.3841 43.2795 36.2178 42.8784 36.2178C42.5457 36.2178 42.2974 36.3112 42.1333 36.498C41.9692 36.6803 41.8872 36.9264 41.8872 37.2363C41.8872 37.4004 41.8986 37.5485 41.9214 37.6807C41.9487 37.8128 41.9852 37.9359 42.0308 38.0498C42.0809 38.1592 42.1401 38.2663 42.2085 38.3711C42.2769 38.4759 42.3543 38.5853 42.4409 38.6992L44.4985 41.1875C44.8722 41.6751 45.1593 42.1445 45.3599 42.5957C45.5604 43.0423 45.6606 43.5163 45.6606 44.0176C45.6606 44.4323 45.5946 44.806 45.4624 45.1387C45.3348 45.4714 45.1502 45.7539 44.9087 45.9863C44.6672 46.2188 44.3755 46.3988 44.0337 46.5264C43.6919 46.6494 43.3068 46.7109 42.8784 46.7109C42.3498 46.7109 41.91 46.6403 41.5591 46.499C41.2127 46.3577 40.9347 46.1709 40.7251 45.9385C40.52 45.7061 40.3742 45.4417 40.2876 45.1455C40.2056 44.8493 40.1646 44.5462 40.1646 44.2363Z" fill="white"/>
<path fill-rule="evenodd" clip-rule="evenodd" d="M26.9596 13.2716C23.5637 14.2427 21.0779 17.37 21.0779 21.0778C21.0779 25.5613 24.7125 29.196 29.196 29.196C33.6796 29.196 37.3142 25.5613 37.3142 21.0778C37.3142 17.37 34.8284 14.2427 31.4324 13.2716V15.3813C33.7052 16.2743 35.3142 18.4881 35.3142 21.0778C35.3142 24.4568 32.575 27.196 29.196 27.196C25.8171 27.196 23.0779 24.4568 23.0779 21.0778C23.0779 18.4882 24.6868 16.2743 26.9596 15.3813V13.2716Z" fill="white"/>
<line x1="29.2415" y1="10.4122" x2="29.2415" y2="19.3405" stroke="white" stroke-width="2"/>
</g>
<defs>
<clipPath id="clip0">
<rect width="180" height="58" fill="white"/>
</clipPath>
</defs>
</svg>
