<svg width="178" height="40" viewBox="0 0 178 40" fill="none" xmlns="http://www.w3.org/2000/svg">
<g clip-path="url(#clip0)">
<path d="M50.9658 34.6138C48.5392 34.6138 47.3258 34.3471 47.3258 33.8138V7.89381C47.3258 6.98715 47.7392 6.53381 48.5658 6.53381H55.6058C59.5525 6.53381 62.3925 7.34714 64.1258 8.97381C65.8858 10.6005 66.7658 12.9605 66.7658 16.0538C66.7658 18.6138 65.9392 20.9605 64.2858 23.0938C63.4592 24.1605 62.2458 25.0138 60.6458 25.6538C59.0458 26.2938 57.1792 26.6138 55.0458 26.6138V33.7738C55.0458 34.0938 54.5392 34.3205 53.5258 34.4538C52.5392 34.5605 51.6858 34.6138 50.9658 34.6138ZM55.0458 13.4938V19.8138H55.5658C56.4992 19.8138 57.2858 19.5205 57.9258 18.9338C58.5658 18.3471 58.8858 17.5205 58.8858 16.4538C58.8858 15.3871 58.6592 14.6271 58.2058 14.1738C57.7792 13.7205 57.0058 13.4938 55.8858 13.4938H55.0458ZM69.8983 32.1738V7.29381C69.8983 6.73381 71.245 6.45381 73.9383 6.45381C76.6583 6.45381 78.0183 6.73381 78.0183 7.29381V26.8938H84.1783C84.6583 26.8938 84.9917 27.5205 85.1783 28.7738C85.2583 29.3871 85.2983 30.0138 85.2983 30.6538C85.2983 31.2938 85.2583 31.9471 85.1783 32.6138C84.965 33.8938 84.6183 34.5338 84.1383 34.5338H71.8183C71.2317 34.5338 70.765 34.2938 70.4183 33.8138C70.0717 33.3338 69.8983 32.7871 69.8983 32.1738ZM106.481 34.6138C104.161 34.6138 102.908 34.2405 102.721 33.4938L101.401 28.3338H95.0412L93.8812 33.2938C93.7212 34.1205 92.4412 34.5338 90.0412 34.5338C88.7612 34.5338 87.8145 34.4671 87.2012 34.3338C86.5878 34.1738 86.2812 34.0538 86.2812 33.9738L93.3612 6.89381C93.3612 6.68048 95.1878 6.57381 98.8412 6.57381C102.494 6.57381 104.321 6.68048 104.321 6.89381L111.241 34.0138C111.241 34.2005 110.628 34.3471 109.401 34.4538C108.174 34.5605 107.201 34.6138 106.481 34.6138ZM96.0412 23.2538H100.241L98.4412 14.9738H98.2012L96.0412 23.2538ZM126.211 7.85381C126.557 6.92048 128.264 6.45381 131.331 6.45381C132.104 6.45381 133.011 6.50715 134.051 6.61381C135.117 6.72048 135.611 6.85381 135.531 7.01381L127.211 23.7338V33.4938C127.211 33.9471 126.477 34.2671 125.011 34.4538C124.264 34.5605 123.531 34.6138 122.811 34.6138C122.091 34.6138 121.371 34.5738 120.651 34.4938C119.184 34.3071 118.451 33.9738 118.451 33.4938V23.9738L109.851 7.09381C109.744 6.93381 110.291 6.78715 111.491 6.65381C112.691 6.49381 113.704 6.41381 114.531 6.41381C117.811 6.41381 119.611 6.89381 119.931 7.85381L122.851 16.0138L126.211 7.85381ZM149.9 17.6538C150.407 17.6538 150.66 18.5871 150.66 20.4538C150.66 21.0138 150.593 21.6805 150.46 22.4538C150.353 23.2005 150.14 23.5738 149.82 23.5738H144.74V27.5738H152.1C152.553 27.5738 152.86 28.1605 153.02 29.3338C153.1 29.8405 153.14 30.3871 153.14 30.9738C153.14 31.5338 153.06 32.2671 152.9 33.1738C152.74 34.0805 152.473 34.5338 152.1 34.5338H138.42C137.407 34.5338 136.9 34.1205 136.9 33.2938V7.57381C136.9 6.88048 137.207 6.53381 137.82 6.53381H152.14C152.7 6.53381 152.98 7.72048 152.98 10.0938C152.98 12.4405 152.7 13.6138 152.14 13.6138H144.74V17.6538H149.9ZM164.266 33.9738C164.266 34.4005 163 34.6138 160.466 34.6138C157.906 34.6138 156.626 34.4138 156.626 34.0138V7.93381C156.626 7.00048 157.12 6.53381 158.106 6.53381H165.746C172.76 6.53381 176.266 9.26715 176.266 14.7338C176.266 16.3871 175.946 17.8938 175.306 19.2538C174.666 20.5871 173.76 21.6538 172.586 22.4538L177.626 30.8538C177.413 31.4938 176.72 32.2271 175.546 33.0538C173.946 34.2005 172.626 34.7738 171.586 34.7738C170.546 34.7738 169.773 34.4005 169.266 33.6538L165.506 24.8938H164.266V33.9738ZM164.266 13.6138V19.6138H164.466C167 19.6138 168.266 18.5605 168.266 16.4538C168.266 15.4938 168.013 14.7871 167.506 14.3338C167.026 13.8538 166.226 13.6138 165.106 13.6138H164.266Z" fill="black"/>
<rect width="40.5781" height="40.5781" rx="5.55941" fill="#00D1B2"/>
<path d="M9.69821 23.8469H12.8003V24.816H10.9286V27.2435H12.3965V28.2126H10.9286V31.9608H9.69821V23.8469ZM15.4178 32.032C15.2879 32.032 15.147 32.0209 14.995 31.9988C14.843 31.9798 14.6925 31.937 14.5437 31.8705C14.3948 31.804 14.2507 31.7106 14.1114 31.5902C13.9752 31.4667 13.8533 31.3052 13.7456 31.1057C13.6411 30.9061 13.5572 30.6607 13.4938 30.3693C13.4305 30.0748 13.3988 29.7249 13.3988 29.3195V26.4455C13.3988 26.0369 13.4305 25.6885 13.4938 25.4003C13.5603 25.109 13.6474 24.8651 13.7551 24.6688C13.8628 24.4693 13.9847 24.3109 14.1209 24.1937C14.2602 24.0765 14.4043 23.9879 14.5532 23.9277C14.7052 23.8644 14.8556 23.8232 15.0045 23.8042C15.1533 23.7852 15.2911 23.7757 15.4178 23.7757C15.5381 23.7757 15.6711 23.7852 15.8168 23.8042C15.9657 23.82 16.1129 23.858 16.2586 23.9182C16.4075 23.9752 16.5516 24.0623 16.6909 24.1795C16.8303 24.2935 16.9538 24.4503 17.0614 24.6498C17.1691 24.8461 17.2546 25.0916 17.318 25.3861C17.3845 25.6775 17.4177 26.0306 17.4177 26.4455V29.3195C17.4177 29.7217 17.3845 30.0685 17.318 30.3598C17.2515 30.648 17.1644 30.8935 17.0567 31.0962C16.949 31.2957 16.8239 31.4572 16.6814 31.5807C16.5421 31.7011 16.398 31.7961 16.2491 31.8657C16.1034 31.9323 15.9578 31.9766 15.8121 31.9988C15.6664 32.0209 15.535 32.032 15.4178 32.032ZM15.4178 31.1057C15.5381 31.1057 15.6426 31.0851 15.7313 31.0439C15.8232 31.0027 15.8976 30.9315 15.9546 30.8301C16.0148 30.7288 16.0591 30.5958 16.0876 30.4311C16.1193 30.2633 16.1351 30.0526 16.1351 29.7993V26.1082C16.1351 25.8485 16.1193 25.6315 16.0876 25.4574C16.0591 25.2832 16.0148 25.1438 15.9546 25.0393C15.8976 24.9316 15.8232 24.8556 15.7313 24.8113C15.6426 24.767 15.5381 24.7448 15.4178 24.7448C15.2943 24.7448 15.1866 24.767 15.0947 24.8113C15.0029 24.8556 14.9269 24.9316 14.8667 25.0393C14.8066 25.1438 14.7606 25.2832 14.729 25.4574C14.7005 25.6315 14.6862 25.8485 14.6862 26.1082V29.7993C14.6862 30.0526 14.7005 30.2633 14.729 30.4311C14.7606 30.5958 14.8066 30.7288 14.8667 30.8301C14.9269 30.9315 15.0029 31.0027 15.0947 31.0439C15.1866 31.0851 15.2943 31.1057 15.4178 31.1057ZM20.3298 32.032C20.2031 32.032 20.0653 32.0209 19.9165 31.9988C19.7708 31.9798 19.6235 31.937 19.4747 31.8705C19.329 31.804 19.1881 31.7106 19.0519 31.5902C18.9189 31.4667 18.8001 31.3052 18.6956 31.1057C18.5943 30.9061 18.5119 30.6607 18.4486 30.3693C18.3884 30.0748 18.3583 29.7249 18.3583 29.3195V26.4455C18.3583 26.0369 18.39 25.6885 18.4533 25.4003C18.5167 25.109 18.6006 24.8651 18.7051 24.6688C18.8096 24.4693 18.93 24.3109 19.0661 24.1937C19.2023 24.0765 19.3433 23.9879 19.4889 23.9277C19.6346 23.8644 19.7787 23.8232 19.9212 23.8042C20.0669 23.7852 20.2015 23.7757 20.325 23.7757C20.6481 23.7757 20.9172 23.8216 21.1326 23.9135C21.3511 24.0021 21.5253 24.1256 21.6552 24.284C21.7882 24.4392 21.8816 24.6213 21.9354 24.8303C21.9924 25.0393 22.0209 25.261 22.0209 25.4954C22.0209 25.6695 22.0114 25.8311 21.9924 25.9799C21.9766 26.1256 21.9513 26.2871 21.9164 26.4645H20.9188V26.0512C20.9188 25.6046 20.8697 25.2705 20.7716 25.0488C20.6734 24.8271 20.5293 24.7163 20.3393 24.7163C20.2253 24.7163 20.1255 24.7384 20.04 24.7828C19.9545 24.8271 19.8832 24.9031 19.8262 25.0108C19.7692 25.1153 19.7249 25.2547 19.6932 25.4289C19.6647 25.603 19.6505 25.82 19.6505 26.0797V29.785C19.6505 30.0384 19.6615 30.249 19.6837 30.4169C19.709 30.5847 19.7486 30.7193 19.8025 30.8206C19.8563 30.922 19.926 30.9948 20.0115 31.0392C20.1002 31.0803 20.2063 31.1009 20.3298 31.1009C20.4089 31.1009 20.485 31.0835 20.5578 31.0487C20.6306 31.0107 20.694 30.9537 20.7478 30.8776C20.8048 30.7985 20.8492 30.7003 20.8808 30.5831C20.9157 30.4628 20.9331 30.3218 20.9331 30.1603V29.367H22.0589V30.1176C22.0589 30.77 21.9101 31.2514 21.6124 31.5617C21.3147 31.8721 20.8872 32.0288 20.3298 32.032ZM22.9995 23.8469H24.2394V29.7945C24.2394 30.0479 24.2521 30.2585 24.2774 30.4264C24.3028 30.5942 24.3423 30.7288 24.3962 30.8301C24.4532 30.9283 24.5244 30.9996 24.6099 31.0439C24.6986 31.0851 24.8031 31.1057 24.9235 31.1057C25.0438 31.1057 25.1483 31.0851 25.237 31.0439C25.3289 30.9996 25.4033 30.9283 25.4603 30.8301C25.5205 30.7288 25.5648 30.5942 25.5933 30.4264C25.625 30.2585 25.6408 30.0479 25.6408 29.7945V23.8469H26.8664V29.4668C26.8664 29.8626 26.8348 30.2015 26.7714 30.4834C26.7081 30.7652 26.6241 31.0012 26.5196 31.1912C26.4151 31.3812 26.2948 31.5316 26.1586 31.6425C26.0256 31.7533 25.8862 31.8388 25.7406 31.899C25.598 31.956 25.4555 31.9924 25.313 32.0083C25.1705 32.0241 25.0407 32.032 24.9235 32.032C24.8063 32.032 24.6765 32.0241 24.5339 32.0083C24.3946 31.9924 24.2537 31.956 24.1111 31.899C23.9686 31.8388 23.8309 31.7533 23.6979 31.6425C23.5648 31.5316 23.4461 31.3812 23.3416 31.1912C23.2371 31.0012 23.1531 30.7668 23.0898 30.4881C23.0296 30.2062 22.9995 29.8658 22.9995 29.4668V23.8469ZM27.9115 30.3171C27.9115 30.1429 27.921 29.983 27.94 29.8373C27.9622 29.6884 27.9939 29.5285 28.035 29.3575H28.9899V29.7518C28.9899 29.9703 29.0026 30.1635 29.0279 30.3313C29.0564 30.4992 29.1007 30.6417 29.1609 30.7589C29.2242 30.8729 29.3066 30.96 29.4079 31.0202C29.5124 31.0772 29.6391 31.1057 29.788 31.1057C30.0223 31.1057 30.2013 31.0423 30.3248 30.9156C30.4483 30.7858 30.51 30.5974 30.51 30.3503C30.51 30.2237 30.5005 30.1081 30.4815 30.0036C30.4657 29.8959 30.4356 29.7898 30.3913 29.6853C30.3501 29.5808 30.2931 29.4715 30.2203 29.3575C30.1474 29.2403 30.054 29.1105 29.94 28.968L28.6574 27.4431C28.4293 27.1517 28.2536 26.8587 28.1301 26.5642C28.0065 26.2665 27.9448 25.9498 27.9448 25.6141C27.9448 25.3449 27.986 25.0979 28.0683 24.873C28.1538 24.6482 28.2757 24.455 28.4341 24.2935C28.5924 24.1288 28.7872 24.0021 29.0184 23.9135C29.2527 23.8216 29.5172 23.7757 29.8117 23.7757C30.1696 23.7757 30.4673 23.8264 30.7048 23.9277C30.9455 24.029 31.1371 24.1621 31.2796 24.3267C31.4221 24.4914 31.5219 24.6767 31.5789 24.8825C31.6391 25.0852 31.6692 25.2895 31.6692 25.4954C31.6692 25.6695 31.6549 25.8311 31.6264 25.9799C31.6011 26.1256 31.571 26.2871 31.5361 26.4645H30.586V26.0797C30.586 25.649 30.5243 25.3196 30.4008 25.0916C30.2773 24.8604 30.0762 24.7448 29.7975 24.7448C29.5663 24.7448 29.3937 24.8097 29.2797 24.9396C29.1657 25.0662 29.1086 25.2372 29.1086 25.4526C29.1086 25.5666 29.1166 25.6695 29.1324 25.7614C29.1514 25.8532 29.1767 25.9387 29.2084 26.0179C29.2432 26.0939 29.2844 26.1683 29.3319 26.2412C29.3794 26.314 29.4333 26.39 29.4934 26.4692L30.9233 28.1984C31.183 28.5372 31.3825 28.8634 31.5219 29.177C31.6612 29.4873 31.7309 29.8167 31.7309 30.1651C31.7309 30.4533 31.685 30.713 31.5931 30.9442C31.5045 31.1753 31.3762 31.3717 31.2084 31.5332C31.0405 31.6947 30.8378 31.8198 30.6003 31.9085C30.3628 31.994 30.0952 32.0368 29.7975 32.0368C29.4301 32.0368 29.1245 31.9877 28.8806 31.8895C28.6399 31.7913 28.4467 31.6615 28.3011 31.5C28.1586 31.3384 28.0572 31.1548 27.997 30.9489C27.94 30.743 27.9115 30.5324 27.9115 30.3171Z" fill="white"/>
<path fill-rule="evenodd" clip-rule="evenodd" d="M18.7351 9.22278C16.3752 9.8976 14.6477 12.0708 14.6477 14.6475C14.6477 17.7633 17.1735 20.289 20.2892 20.289C23.4049 20.289 25.9307 17.7633 25.9307 14.6475C25.9307 12.0709 24.2033 9.89767 21.8434 9.22281V10.6889C23.4228 11.3095 24.5409 12.8479 24.5409 14.6475C24.5409 16.9957 22.6373 18.8992 20.2892 18.8992C17.9411 18.8992 16.0376 16.9957 16.0376 14.6475C16.0376 12.8479 17.1557 11.3094 18.7351 10.6888V9.22278Z" fill="white"/>
<line x1="20.3207" y1="7.23572" x2="20.3207" y2="13.4402" stroke="white" stroke-width="1.38985"/>
</g>
<defs>
<clipPath id="clip0">
<rect width="178" height="40" fill="white"/>
</clipPath>
</defs>
</svg>
